<svg width="24" height="24" viewBox="0 0 24 24" fill="none" xmlns="http://www.w3.org/2000/svg">
<path fill-rule="evenodd" clip-rule="evenodd" d="M12.836 16.7214C10.7804 17.7569 8.67327 17.5334 7.58056 17.6051C6.55112 17.6726 2.381 16.1869 1.18004 13.2674C-1.43963 6.89918 0.727045 4.17158 3.547 1.89096C6.84699 -0.777952 9.23683 -0.107226 12.0404 0.801898C16.9312 2.38773 17.8134 8.33688 17.5057 9.63994C17.2123 10.8829 16.8443 11.9308 16.4229 12.8143C16.6592 13.1055 16.8964 13.3922 17.1345 13.6744C17.4964 14.1029 17.8727 14.5251 18.2636 14.941C18.5547 15.255 18.8396 15.5711 19.1183 15.8895C19.3969 16.2077 19.6817 16.5154 19.9729 16.8123C20.5551 17.4404 21.1519 18.0579 21.7632 18.6646C22.3744 19.2715 23.0004 19.8592 23.6407 20.4278C23.7905 20.4958 23.8737 20.6019 23.8903 20.7462C23.9069 20.8904 23.8611 21.0092 23.753 21.1025C23.4286 21.4166 23.1085 21.7264 22.7924 22.032C22.4764 22.3374 22.1687 22.66 21.8692 22.9994L21.6758 23.1967C21.5884 23.2858 21.4949 23.377 21.3951 23.4705C21.2953 23.5638 21.1996 23.6487 21.1082 23.7251C21.0167 23.8015 20.946 23.8481 20.896 23.8651C20.7713 23.9075 20.659 23.9033 20.5592 23.8523C20.501 23.827 20.4158 23.7569 20.3035 23.6423L20.0726 23.4069C19.7399 23.0673 19.4073 22.732 19.0746 22.4011C18.7419 22.0701 18.4051 21.7391 18.064 21.4081L18.039 21.3826C17.3487 20.7801 16.673 20.1753 16.0118 19.5686C15.3506 18.9617 14.6789 18.3527 13.9968 17.7418C13.6099 17.3942 13.223 17.0541 12.836 16.7214ZM5.41551 4.35915C3.60245 5.82549 2.20938 7.57917 3.89372 11.6736C4.66583 13.5508 7.34704 14.506 8.00884 14.4626C9.34853 14.3747 13.0595 14.9767 14.3903 9.34133C14.5881 8.50357 14.0209 4.67855 10.8763 3.65897C9.07382 3.07441 7.53732 2.64326 5.41551 4.35915Z" fill="#17301E"/>
</svg>
